<svg xmlns="http://www.w3.org/2000/svg" xmlns:xlink="http://www.w3.org/1999/xlink" version="1.1" x="0px" y="0px" viewBox="0 0 100 125" style="enable-background:new 0 0 100 100;" xml:space="preserve"><path d="M65.2,35.6H29c-1,0-1.8,0.8-1.8,1.8c0,1.1,0.8,1.8,1.8,1.8h36.1c1,0,1.8-0.8,1.8-1.8C67,36.3,66.2,35.6,65.2,35.6z"/><path d="M65.2,48.2H29c-1,0-1.8,0.8-1.8,1.8c0,1,0.8,1.8,1.8,1.8h36.1c1,0,1.8-0.8,1.8-1.8C67,49,66.2,48.2,65.2,48.2z"/><path d="M65.2,60.8H29c-1,0-1.8,0.8-1.8,1.8c0,1.1,0.8,1.8,1.8,1.8h36.1c1,0,1.8-0.8,1.8-1.8C67,61.6,66.2,60.8,65.2,60.8z"/><path d="M78.6,65.4c-1.1-0.6-2.3-0.3-2.9,0.8c-5.9,10.3-16.8,16.7-28.6,16.7C29,82.9,14.2,68.1,14.2,50S29,17.1,47.1,17.1  c11.6,0,22.1,6,28.2,15.9c0.6,1,1.9,1.3,2.9,0.7c1-0.6,1.3-1.9,0.7-2.9c-6.7-11.2-18.6-17.9-31.8-17.9C26.6,12.9,10,29.5,10,50  s16.6,37.1,37.1,37.1c13.3,0,25.7-7.2,32.3-18.8C79.9,67.3,79.6,66,78.6,65.4z"/><path d="M87.9,48h-3.7c-0.2-1.8-0.4-3.7-0.8-5.4c-0.3-1.1-1.4-1.8-2.5-1.6s-1.8,1.4-1.6,2.5c0.4,1.5,0.5,3,0.7,4.6h-4.3  c-1.1,0-2,0.9-2,2s0.9,2,2,2h4.4c-0.1,1.6-0.3,3.1-0.5,4.6c-0.2,1.1,0.5,2.3,1.7,2.5c0.1,0,0.3,0,0.4,0c1,0,1.8-0.7,2.1-1.8  c0.4-1.8,0.5-3.6,0.6-5.4H88c1.1,0,2-0.9,2-2S89,48,87.9,48z"/><text x="0" y="115" fill="#000000" font-size="5px" font-weight="bold" font-family="'Helvetica Neue', Helvetica, Arial-Unicode, Arial, Sans-serif">Created by Isaque Pereira Cordeiro</text><text x="0" y="120" fill="#000000" font-size="5px" font-weight="bold" font-family="'Helvetica Neue', Helvetica, Arial-Unicode, Arial, Sans-serif">from the Noun Project</text></svg>